<?xml version="1.0" encoding="UTF-8"?>
<svg width="40px" height="40px" viewBox="0 0 40 40" version="1.1" xmlns="http://www.w3.org/2000/svg" xmlns:xlink="http://www.w3.org/1999/xlink">
    <title>关闭声音</title>
    <defs>
        <path d="M19.472,11.085062 C19.8573333,10.8489047 20.3333333,11.1322935 20.3333333,11.5928002 L20.3333333,11.5928002 L20.3333333,28.4071998 C20.3333333,28.8677065 19.846,29.1510953 19.472,28.914938 L19.472,28.914938 L14.6666667,25.9039325 L10.1333333,25.9039325 C9.51,25.9039325 9,25.3725785 9,24.723146 L9,24.723146 L9,15.3004698 C9,14.6392293 9.52133333,14.0960675 10.156,14.0960675 L10.156,14.0960675 L14.6666667,14.0960675 Z M24.5251263,15.7573593 L27,18.232233 L29.4748737,15.7573593 C29.9630291,15.2692039 30.7544853,15.2692039 31.2426407,15.7573593 C31.7307961,16.2455147 31.7307961,17.0369709 31.2426407,17.5251263 L28.767767,20 L31.2426407,22.4748737 C31.7307961,22.9630291 31.7307961,23.7544853 31.2426407,24.2426407 C30.7544853,24.7307961 29.9630291,24.7307961 29.4748737,24.2426407 L27,21.767767 L24.5251263,24.2426407 C24.0369709,24.7307961 23.2455147,24.7307961 22.7573593,24.2426407 C22.2692039,23.7544853 22.2692039,22.9630291 22.7573593,22.4748737 L25.232233,20 L22.7573593,17.5251263 C22.2692039,17.0369709 22.2692039,16.2455147 22.7573593,15.7573593 C23.2455147,15.2692039 24.0369709,15.2692039 24.5251263,15.7573593 Z" id="path-1"></path>
        <filter x="-13.3%" y="-16.7%" width="126.5%" height="133.3%" filterUnits="objectBoundingBox" id="filter-2">
            <feGaussianBlur stdDeviation="2.5" in="SourceAlpha" result="shadowBlurInner1"></feGaussianBlur>
            <feOffset dx="0" dy="1" in="shadowBlurInner1" result="shadowOffsetInner1"></feOffset>
            <feComposite in="shadowOffsetInner1" in2="SourceAlpha" operator="arithmetic" k2="-1" k3="1" result="shadowInnerInner1"></feComposite>
            <feColorMatrix values="0 0 0 0 0.588235294   0 0 0 0 0.588235294   0 0 0 0 1  0 0 0 0.2 0" type="matrix" in="shadowInnerInner1"></feColorMatrix>
        </filter>
    </defs>
    <g id="页面-1" stroke="none" stroke-width="1" fill="none" fill-rule="evenodd">
        <g id="补充" transform="translate(-210.000000, -418.000000)">
            <g id="关闭声音" transform="translate(210.000000, 418.000000)">
                <circle id="椭圆形" fill="#9696FF" cx="20" cy="20" r="20"></circle>
                <g id="路径-2" fill-rule="nonzero">
                    <use fill="#FFFFFF" xlink:href="#path-1"></use>
                    <use fill="black" fill-opacity="1" filter="url(#filter-2)" xlink:href="#path-1"></use>
                </g>
            </g>
        </g>
    </g>
</svg>