<?xml version="1.0" encoding="UTF-8"?>
<svg width="40px" height="40px" viewBox="0 0 40 40" version="1.1" xmlns="http://www.w3.org/2000/svg" xmlns:xlink="http://www.w3.org/1999/xlink">
    <title>开启声音</title>
    <defs>
        <path d="M19.472,11.085062 C19.8573333,10.8489047 20.3333333,11.1322935 20.3333333,11.5928002 L20.3333333,11.5928002 L20.3333333,28.4071998 C20.3333333,28.8677065 19.846,29.1510953 19.472,28.914938 L19.472,28.914938 L14.6666667,25.9039325 L10.1333333,25.9039325 C9.51,25.9039325 9,25.3725785 9,24.723146 L9,24.723146 L9,15.3004698 C9,14.6392293 9.52133333,14.0960675 10.156,14.0960675 L10.156,14.0960675 L14.6666667,14.0960675 Z M25.3054268,12.382133 C25.7499399,11.9133683 26.5068135,11.8676351 26.9993821,12.2906667 C27.1555624,12.4392994 30.9759723,15.7320854 31,20.2596662 C31,22.9579214 29.6544468,25.4618108 27.011396,27.7141679 C26.7831325,27.9085337 26.4947996,28 26.2064668,28 C25.8700785,28 25.5457041,27.8742339 25.3054268,27.6227016 C24.8609137,27.1539369 24.9089691,26.43364 25.4015377,26.0106084 C27.5159784,24.2155827 28.5852126,22.2833576 28.5852126,20.2596662 C28.5852126,16.7382145 25.4375793,14.0170927 25.4015377,13.9942261 C24.9089691,13.5711946 24.8609137,12.8508976 25.3054268,12.382133 Z M22.5039749,16.0872253 C22.9069435,15.6501807 23.5930793,15.6182018 24.0396121,16.012608 C24.1158494,16.0872253 26,17.7714461 26,20.1165637 C26,21.5342938 25.3465374,22.8347681 24.0396121,23.9860076 C23.8326823,24.1672213 23.5712972,24.2631579 23.3099122,24.2631579 C23.015854,24.2631579 22.7217958,24.145902 22.5039749,23.9113903 C22.1010063,23.4743456 22.1336794,22.8027892 22.5802122,22.4083831 C23.4079316,21.672869 23.8217912,20.9053759 23.8217912,20.1165637 C23.8217912,18.7308124 22.5911033,17.6008921 22.5802122,17.5902325 C22.1336794,17.1958264 22.1010063,16.52427 22.5039749,16.0872253 Z" id="path-1"></path>
        <filter x="-13.6%" y="-16.7%" width="127.3%" height="133.3%" filterUnits="objectBoundingBox" id="filter-2">
            <feGaussianBlur stdDeviation="2.5" in="SourceAlpha" result="shadowBlurInner1"></feGaussianBlur>
            <feOffset dx="0" dy="1" in="shadowBlurInner1" result="shadowOffsetInner1"></feOffset>
            <feComposite in="shadowOffsetInner1" in2="SourceAlpha" operator="arithmetic" k2="-1" k3="1" result="shadowInnerInner1"></feComposite>
            <feColorMatrix values="0 0 0 0 0.588235294   0 0 0 0 0.588235294   0 0 0 0 1  0 0 0 0.2 0" type="matrix" in="shadowInnerInner1"></feColorMatrix>
        </filter>
    </defs>
    <g id="页面-1" stroke="none" stroke-width="1" fill="none" fill-rule="evenodd">
        <g id="补充" transform="translate(-150.000000, -418.000000)">
            <g id="开启声音" transform="translate(150.000000, 418.000000)">
                <circle id="椭圆形" fill="#9696FF" cx="20" cy="20" r="20"></circle>
                <g id="形状结合" fill-rule="nonzero">
                    <use fill="#FFFFFF" xlink:href="#path-1"></use>
                    <use fill="black" fill-opacity="1" filter="url(#filter-2)" xlink:href="#path-1"></use>
                </g>
            </g>
        </g>
    </g>
</svg>