<?xml version="1.0" encoding="UTF-8"?>
<svg width="40px" height="40px" viewBox="0 0 40 40" version="1.1" xmlns="http://www.w3.org/2000/svg" xmlns:xlink="http://www.w3.org/1999/xlink">
    <title>菜单</title>
    <defs>
        <path d="M27,24 C28.1045695,24 29,24.8954305 29,26 C29,27.1045695 28.1045695,28 27,28 L13,28 C11.8954305,28 11,27.1045695 11,26 C11,24.8954305 11.8954305,24 13,24 L27,24 Z M27,18 C28.1045695,18 29,18.8954305 29,20 C29,21.1045695 28.1045695,22 27,22 L13,22 C11.8954305,22 11,21.1045695 11,20 C11,18.8954305 11.8954305,18 13,18 L27,18 Z M27,12 C28.1045695,12 29,12.8954305 29,14 C29,15.1045695 28.1045695,16 27,16 L13,16 C11.8954305,16 11,15.1045695 11,14 C11,12.8954305 11.8954305,12 13,12 L27,12 Z" id="path-1"></path>
        <filter x="-16.7%" y="-18.8%" width="133.3%" height="137.5%" filterUnits="objectBoundingBox" id="filter-2">
            <feGaussianBlur stdDeviation="2.5" in="SourceAlpha" result="shadowBlurInner1"></feGaussianBlur>
            <feOffset dx="0" dy="1" in="shadowBlurInner1" result="shadowOffsetInner1"></feOffset>
            <feComposite in="shadowOffsetInner1" in2="SourceAlpha" operator="arithmetic" k2="-1" k3="1" result="shadowInnerInner1"></feComposite>
            <feColorMatrix values="0 0 0 0 0.423529412   0 0 0 0 0.749019608   0 0 0 0 0.968627451  0 0 0 0.2 0" type="matrix" in="shadowInnerInner1"></feColorMatrix>
        </filter>
    </defs>
    <g id="页面-1" stroke="none" stroke-width="1" fill="none" fill-rule="evenodd">
        <g id="补充" transform="translate(-90.000000, -548.000000)">
            <g id="菜单" transform="translate(90.000000, 548.000000)">
                <circle id="椭圆形" fill="#6CBFF7" cx="20" cy="20" r="20"></circle>
                <g id="形状结合" fill-rule="nonzero">
                    <use fill="#FFFFFF" xlink:href="#path-1"></use>
                    <use fill="black" fill-opacity="1" filter="url(#filter-2)" xlink:href="#path-1"></use>
                </g>
            </g>
        </g>
    </g>
</svg>