<?xml version="1.0" encoding="UTF-8"?>
<svg width="18px" height="18px" viewBox="0 0 18 18" version="1.1" xmlns="http://www.w3.org/2000/svg" xmlns:xlink="http://www.w3.org/1999/xlink">
    <title>说明</title>
    <g id="页面-1" stroke="none" stroke-width="1" fill="none" fill-rule="evenodd">
        <g id="选择难度" transform="translate(-159.000000, -837.000000)" fill-rule="nonzero">
            <g id="说明" transform="translate(159.000000, 837.000000)">
                <path d="M8.98242188,0.001546875 C5.77386424,0.001546875 2.8090347,1.71329192 1.20475587,4.49198434 C-0.399522967,7.27067675 -0.399522967,10.694167 1.20475587,13.4728594 C2.8090347,16.2515518 5.77386424,17.9632969 8.98242188,17.9632969 C13.9424221,17.9632969 17.9632967,13.9424221 17.9632967,8.98242188 C17.9632967,4.02242162 13.9424221,0.001546875 8.98242188,0.001546875 Z" id="形状" fill="#F8E71C"></path>
                <path d="M8.29729687,3.84567188 C8.57854512,3.59227367 8.94595133,3.4558545 9.32442187,3.46429688 C9.72604687,3.46429688 10.0590469,3.59142188 10.3425469,3.84679688 C10.6260469,4.10104688 10.7632969,4.41379688 10.7632969,4.77604688 C10.7632969,5.13717188 10.6260469,5.45104688 10.3425469,5.70529688 C10.0590469,5.95954688 9.71592187,6.08667188 9.32442187,6.08667188 C8.92392187,6.08667188 8.59092187,5.95954688 8.29729687,5.70417188 C8.02408872,5.47338431 7.86679764,5.13368501 7.86754421,4.77604688 C7.86754421,4.41379688 8.01379687,4.11004688 8.29729687,3.84567188 L8.29729687,3.84567188 Z" id="路径" fill="#FF7A32"></path>
                <path d="M10.9095469,13.9324219 C10.4201719,14.1191719 10.0387969,14.2654219 9.74517187,14.3531719 C9.45267187,14.4420469 9.11967187,14.4994219 8.73829687,14.4994219 C8.15104687,14.4994219 7.69204687,14.3632969 7.36804687,14.0797969 C7.05220696,13.8164626 6.87233484,13.4244655 6.87867187,13.0132969 C6.87867187,12.8467969 6.88879687,12.6802969 6.91804687,12.5047969 C6.93717187,12.3281719 6.98554687,12.1335469 7.03504687,11.9175469 L7.64254687,9.83404687 C7.69092187,9.63829687 7.74042187,9.44254687 7.77867187,9.26592187 C7.81804687,9.09042187 7.83829687,8.92392187 7.83829687,8.77654687 C7.83829687,8.51329687 7.77867187,8.32654687 7.67179687,8.21967187 C7.55367187,8.11167187 7.33879687,8.06217187 7.02604687,8.06217187 C6.86854687,8.06217187 6.71217187,8.08242187 6.54679687,8.13079687 C6.38029687,8.18029687 6.24304687,8.21967187 6.12604687,8.26804687 L6.28242187,7.62229687 C6.68292187,7.46592187 7.06542187,7.32979687 7.42654687,7.22179687 C7.76240667,7.11634733 8.11180716,7.06026135 8.46379687,7.05529687 C9.05104687,7.05529687 9.50104687,7.19254687 9.81379687,7.46592187 C10.1265469,7.74042187 10.2840469,8.10154687 10.2840469,8.53242187 C10.2840469,8.62017187 10.2727969,8.78667187 10.2446719,9.01167187 C10.2244219,9.23667187 10.1861719,9.45154687 10.1175469,9.63829687 L9.51004687,11.7217969 C9.45455068,11.9116432 9.40911249,12.1042861 9.37392187,12.2989219 C9.33454687,12.5137969 9.31542187,12.6701719 9.31542187,12.7882969 C9.31542187,13.0616719 9.38292187,13.2484219 9.51117187,13.3552969 C9.63829687,13.4531719 9.86329687,13.5015469 10.1760469,13.5015469 C10.3222969,13.5015469 10.4887969,13.4734219 10.6744219,13.4239219 C10.8611719,13.3755469 10.9972969,13.3260469 11.0760469,13.2866719 L10.9095469,13.9324219 L10.9095469,13.9324219 Z" id="路径" fill="#FF7A32"></path>
            </g>
        </g>
    </g>
</svg>